<svg xmlns="http://www.w3.org/2000/svg" width="1200" height="900" viewBox="0 0 1200 900">
  <defs>
    <filter id="n5" x="0%" y="0%" width="100%" height="100%">
      <feTurbulence type="fractalNoise" baseFrequency="0.6" numOctaves="4" stitchTiles="stitch" result="noise"/>
      <feColorMatrix type="saturate" values="0" in="noise" result="gray"/>
      <feBlend in="SourceGraphic" in2="gray" mode="multiply"/>
      <feComponentTransfer><feFuncA type="linear" slope="0.05"/></feComponentTransfer>
    </filter>
    <linearGradient id="bg5" x1="0" y1="0" x2="1" y2="0.5">
      <stop offset="0%" stop-color="#FFFFFF"/>
      <stop offset="30%" stop-color="#FAFAFA"/>
      <stop offset="70%" stop-color="#F5F5F5"/>
      <stop offset="100%" stop-color="#F0F0F0"/>
    </linearGradient>
  </defs>
  <rect width="1200" height="900" fill="url(#bg5)"/>
  <g opacity="0.04" filter="url(#n5)"><rect width="1200" height="900" fill="#E0E0E0"/></g>
  <path d="M0 250 Q200 180 400 270 Q600 360 800 230 Q1000 100 1200 250" stroke="#D0D0D0" stroke-width="1.2" fill="none" opacity="0.4"/>
  <path d="M0 550 Q300 480 600 570 Q900 660 1200 520" stroke="#C8C8C8" stroke-width="0.8" fill="none" opacity="0.3"/>
  <path d="M500 0 Q480 200 520 400 Q560 600 500 900" stroke="#D0D0D0" stroke-width="0.5" fill="none" opacity="0.2"/>
  <path d="M0 400 Q150 350 300 420 Q450 490 600 380 Q750 270 900 400 Q1050 530 1200 420" stroke="#C5C5C5" stroke-width="0.6" fill="none" opacity="0.15"/>
</svg>
